# xmcd CD database file
#
# Track frame offsets:
#	150
#	29837
#	52577
#	93725
#	105795
#	140655
#	169650
#	183207
#	215727
#	248080
#	263455
#	275282
#	293177
#	306532
#	314677
#
# Disc length: 4403 seconds
#
# Revision: 2
# Processed by: cddbd v1.4b41PL1 Copyright (c) Steve Scherf et al.
# Submitted via: Feurio! 1.50.2ß - http://www.feurio.com
#
DISCID=da11310f
DTITLE=Ry Cooder - Slide on dropdown D
DYEAR=1900
DGENRE=
TTITLE0=Let's have a ball
TTITLE1=Jesus on the mainline
TTITLE2=How can a poor man stand such times and live?
TTITLE3=Jesus hits like the atom bomb
TTITLE4=Down in Mississippi
TTITLE5=Maria Elena
TTITLE6=Just a little bit
TTITLE7=The very thing that makes you rich (makes me poor)
TTITLE8=Crazy 'bout an automobile (Every woman I know)
TTITLE9=If walls could talk
TTITLE10=Police dog blues
TTITLE11=Tattler
TTITLE12=I am a pilgrim
TTITLE13=Dark is the night
TTITLE14=All shook up
EXTD=Live in Santa Cruz 1987
EXTT0=
EXTT1=
EXTT2=
EXTT3=
EXTT4=
EXTT5=
EXTT6=
EXTT7=
EXTT8=
EXTT9=
EXTT10=
EXTT11=
EXTT12=
EXTT13=
EXTT14=
PLAYORDER=
